# Tiled2Unity generated file. Do not modify by hand.
# Wavefront file for 'dungeon1_tiled_map_mesh_0004.obj'

# Vertices (Count = 548)
v -8 -1 0
v -9 -1 0
v -9 0 0
v -8 0 0
v -9 -1 0
v -10 -1 0
v -10 0 0
v -9 0 0
v -10 -1 0
v -11 -1 0
v -11 0 0
v -10 0 0
v -11 -1 0
v -12 -1 0
v -12 0 0
v -11 0 0
v -12 -1 0
v -13 -1 0
v -13 0 0
v -12 0 0
v -13 -1 0
v -14 -1 0
v -14 0 0
v -13 0 0
v -14 -1 0
v -15 -1 0
v -15 0 0
v -14 0 0
v -15 -1 0
v -16 -1 0
v -16 0 0
v -15 0 0
v -16 -1 0
v -17 -1 0
v -17 0 0
v -16 0 0
v -17 -1 0
v -18 -1 0
v -18 0 0
v -17 0 0
v -18 -1 0
v -19 -1 0
v -19 0 0
v -18 0 0
v -19 -1 0
v -20 -1 0
v -20 0 0
v -19 0 0
v -20 -1 0
v -21 -1 0
v -21 0 0
v -20 0 0
v -21 -1 0
v -22 -1 0
v -22 0 0
v -21 0 0
v -2 -2 0
v -3 -2 0
v -3 -1 0
v -2 -1 0
v -3 -2 0
v -4 -2 0
v -4 -1 0
v -3 -1 0
v -4 -2 0
v -5 -2 0
v -5 -1 0
v -4 -1 0
v -8 -2 0
v -9 -2 0
v -9 -1 0
v -8 -1 0
v -9 -2 0
v -10 -2 0
v -10 -1 0
v -9 -1 0
v -10 -2 0
v -11 -2 0
v -11 -1 0
v -10 -1 0
v -11 -2 0
v -12 -2 0
v -12 -1 0
v -11 -1 0
v -12 -2 0
v -13 -2 0
v -13 -1 0
v -12 -1 0
v -13 -2 0
v -14 -2 0
v -14 -1 0
v -13 -1 0
v -14 -2 0
v -15 -2 0
v -15 -1 0
v -14 -1 0
v -15 -2 0
v -16 -2 0
v -16 -1 0
v -15 -1 0
v -16 -2 0
v -17 -2 0
v -17 -1 0
v -16 -1 0
v -17 -2 0
v -18 -2 0
v -18 -1 0
v -17 -1 0
v -18 -2 0
v -19 -2 0
v -19 -1 0
v -18 -1 0
v -19 -2 0
v -20 -2 0
v -20 -1 0
v -19 -1 0
v -20 -2 0
v -21 -2 0
v -21 -1 0
v -20 -1 0
v -21 -2 0
v -22 -2 0
v -22 -1 0
v -21 -1 0
v -2 -3 0
v -3 -3 0
v -3 -2 0
v -2 -2 0
v -4 -3 0
v -5 -3 0
v -5 -2 0
v -4 -2 0
v -8 -3 0
v -9 -3 0
v -9 -2 0
v -8 -2 0
v -9 -3 0
v -10 -3 0
v -10 -2 0
v -9 -2 0
v -10 -3 0
v -11 -3 0
v -11 -2 0
v -10 -2 0
v -11 -3 0
v -12 -3 0
v -12 -2 0
v -11 -2 0
v -12 -3 0
v -13 -3 0
v -13 -2 0
v -12 -2 0
v -13 -3 0
v -14 -3 0
v -14 -2 0
v -13 -2 0
v -14 -3 0
v -15 -3 0
v -15 -2 0
v -14 -2 0
v -15 -3 0
v -16 -3 0
v -16 -2 0
v -15 -2 0
v -16 -3 0
v -17 -3 0
v -17 -2 0
v -16 -2 0
v -17 -3 0
v -18 -3 0
v -18 -2 0
v -17 -2 0
v -18 -3 0
v -19 -3 0
v -19 -2 0
v -18 -2 0
v -19 -3 0
v -20 -3 0
v -20 -2 0
v -19 -2 0
v -20 -3 0
v -21 -3 0
v -21 -2 0
v -20 -2 0
v -21 -3 0
v -22 -3 0
v -22 -2 0
v -21 -2 0
v -2 -4 0
v -3 -4 0
v -3 -3 0
v -2 -3 0
v -3 -4 0
v -4 -4 0
v -4 -3 0
v -3 -3 0
v -8 -4 0
v -9 -4 0
v -9 -3 0
v -8 -3 0
v -9 -4 0
v -10 -4 0
v -10 -3 0
v -9 -3 0
v -10 -4 0
v -11 -4 0
v -11 -3 0
v -10 -3 0
v -11 -4 0
v -12 -4 0
v -12 -3 0
v -11 -3 0
v -12 -4 0
v -13 -4 0
v -13 -3 0
v -12 -3 0
v -13 -4 0
v -14 -4 0
v -14 -3 0
v -13 -3 0
v -14 -4 0
v -15 -4 0
v -15 -3 0
v -14 -3 0
v -15 -4 0
v -16 -4 0
v -16 -3 0
v -15 -3 0
v -16 -4 0
v -17 -4 0
v -17 -3 0
v -16 -3 0
v -17 -4 0
v -18 -4 0
v -18 -3 0
v -17 -3 0
v -18 -4 0
v -19 -4 0
v -19 -3 0
v -18 -3 0
v -19 -4 0
v -20 -4 0
v -20 -3 0
v -19 -3 0
v -20 -4 0
v -21 -4 0
v -21 -3 0
v -20 -3 0
v -21 -4 0
v -22 -4 0
v -22 -3 0
v -21 -3 0
v -2 -5 0
v -3 -5 0
v -3 -4 0
v -2 -4 0
v -3 -5 0
v -4 -5 0
v -4 -4 0
v -3 -4 0
v -12 -5 0
v -13 -5 0
v -13 -4 0
v -12 -4 0
v -13 -5 0
v -14 -5 0
v -14 -4 0
v -13 -4 0
v -14 -5 0
v -15 -5 0
v -15 -4 0
v -14 -4 0
v -15 -5 0
v -16 -5 0
v -16 -4 0
v -15 -4 0
v -16 -5 0
v -17 -5 0
v -17 -4 0
v -16 -4 0
v -17 -5 0
v -18 -5 0
v -18 -4 0
v -17 -4 0
v -2 -6 0
v -3 -6 0
v -3 -5 0
v -2 -5 0
v -3 -6 0
v -4 -6 0
v -4 -5 0
v -3 -5 0
v -12 -6 0
v -13 -6 0
v -13 -5 0
v -12 -5 0
v -13 -6 0
v -14 -6 0
v -14 -5 0
v -13 -5 0
v -14 -6 0
v -15 -6 0
v -15 -5 0
v -14 -5 0
v -15 -6 0
v -16 -6 0
v -16 -5 0
v -15 -5 0
v -16 -6 0
v -17 -6 0
v -17 -5 0
v -16 -5 0
v -17 -6 0
v -18 -6 0
v -18 -5 0
v -17 -5 0
v -2 -7 0
v -3 -7 0
v -3 -6 0
v -2 -6 0
v -3 -7 0
v -4 -7 0
v -4 -6 0
v -3 -6 0
v -12 -7 0
v -13 -7 0
v -13 -6 0
v -12 -6 0
v -13 -7 0
v -14 -7 0
v -14 -6 0
v -13 -6 0
v -14 -7 0
v -15 -7 0
v -15 -6 0
v -14 -6 0
v -15 -7 0
v -16 -7 0
v -16 -6 0
v -15 -6 0
v -16 -7 0
v -17 -7 0
v -17 -6 0
v -16 -6 0
v -17 -7 0
v -18 -7 0
v -18 -6 0
v -17 -6 0
v -2 -8 0
v -3 -8 0
v -3 -7 0
v -2 -7 0
v -3 -8 0
v -4 -8 0
v -4 -7 0
v -3 -7 0
v -12 -8 0
v -13 -8 0
v -13 -7 0
v -12 -7 0
v -13 -8 0
v -14 -8 0
v -14 -7 0
v -13 -7 0
v -14 -8 0
v -15 -8 0
v -15 -7 0
v -14 -7 0
v -15 -8 0
v -16 -8 0
v -16 -7 0
v -15 -7 0
v -16 -8 0
v -17 -8 0
v -17 -7 0
v -16 -7 0
v -17 -8 0
v -18 -8 0
v -18 -7 0
v -17 -7 0
v -2 -9 0
v -3 -9 0
v -3 -8 0
v -2 -8 0
v -3 -9 0
v -4 -9 0
v -4 -8 0
v -3 -8 0
v -12 -9 0
v -13 -9 0
v -13 -8 0
v -12 -8 0
v -13 -9 0
v -14 -9 0
v -14 -8 0
v -13 -8 0
v -14 -9 0
v -15 -9 0
v -15 -8 0
v -14 -8 0
v -15 -9 0
v -16 -9 0
v -16 -8 0
v -15 -8 0
v -16 -9 0
v -17 -9 0
v -17 -8 0
v -16 -8 0
v -17 -9 0
v -18 -9 0
v -18 -8 0
v -17 -8 0
v -2 -10 0
v -3 -10 0
v -3 -9 0
v -2 -9 0
v -3 -10 0
v -4 -10 0
v -4 -9 0
v -3 -9 0
v -12 -10 0
v -13 -10 0
v -13 -9 0
v -12 -9 0
v -13 -10 0
v -14 -10 0
v -14 -9 0
v -13 -9 0
v -14 -10 0
v -15 -10 0
v -15 -9 0
v -14 -9 0
v -15 -10 0
v -16 -10 0
v -16 -9 0
v -15 -9 0
v -16 -10 0
v -17 -10 0
v -17 -9 0
v -16 -9 0
v -17 -10 0
v -18 -10 0
v -18 -9 0
v -17 -9 0
v -2 -11 0
v -3 -11 0
v -3 -10 0
v -2 -10 0
v -3 -11 0
v -4 -11 0
v -4 -10 0
v -3 -10 0
v -4 -11 0
v -5 -11 0
v -5 -10 0
v -4 -10 0
v -5 -11 0
v -6 -11 0
v -6 -10 0
v -5 -10 0
v -6 -11 0
v -7 -11 0
v -7 -10 0
v -6 -10 0
v -7 -11 0
v -8 -11 0
v -8 -10 0
v -7 -10 0
v -8 -11 0
v -9 -11 0
v -9 -10 0
v -8 -10 0
v -9 -11 0
v -10 -11 0
v -10 -10 0
v -9 -10 0
v -10 -11 0
v -11 -11 0
v -11 -10 0
v -10 -10 0
v -11 -11 0
v -12 -11 0
v -12 -10 0
v -11 -10 0
v -12 -11 0
v -13 -11 0
v -13 -10 0
v -12 -10 0
v -13 -11 0
v -14 -11 0
v -14 -10 0
v -13 -10 0
v -14 -11 0
v -15 -11 0
v -15 -10 0
v -14 -10 0
v -15 -11 0
v -16 -11 0
v -16 -10 0
v -15 -10 0
v -16 -11 0
v -17 -11 0
v -17 -10 0
v -16 -10 0
v -17 -11 0
v -18 -11 0
v -18 -10 0
v -17 -10 0
v -18 -11 0
v -19 -11 0
v -19 -10 0
v -18 -10 0
v -19 -11 0
v -20 -11 0
v -20 -10 0
v -19 -10 0
v -20 -11 0
v -21 -11 0
v -21 -10 0
v -20 -10 0
v -21 -11 0
v -22 -11 0
v -22 -10 0
v -21 -10 0
v -22 -11 0
v -23 -11 0
v -23 -10 0
v -22 -10 0
v -23 -11 0
v -24 -11 0
v -24 -10 0
v -23 -10 0
v -24 -11 0
v -25 -11 0
v -25 -10 0
v -24 -10 0
v -25 -11 0
v -26 -11 0
v -26 -10 0
v -25 -10 0
v -26 -11 0
v -27 -11 0
v -27 -10 0
v -26 -10 0
v -27 -11 0
v -28 -11 0
v -28 -10 0
v -27 -10 0

# Texture cooridinates (Count = 51)
vt 0.65625 0.1875
vt 0.6875 0.1875
vt 0.6875 0.21875
vt 0.65625 0.21875
vt 0.71875 0.21875
vt 0.71875 0.25
vt 0.6875 0.25
vt 0.625 0.1875
vt 0.625 0.21875
vt 0.65625 0.15625
vt 0.6875 0.15625
vt 0.8125 0.1875
vt 0.84375 0.1875
vt 0.84375 0.21875
vt 0.8125 0.21875
vt 0.84375 0.125
vt 0.875 0.125
vt 0.875 0.15625
vt 0.84375 0.15625
vt 0.90625 0.125
vt 0.90625 0.15625
vt 0.84375 0.0625
vt 0.875 0.0625
vt 0.875 0.09375
vt 0.84375 0.09375
vt 0.90625 0.0625
vt 0.90625 0.09375
vt 0.90625 0.1875
vt 0.9375 0.1875
vt 0.9375 0.21875
vt 0.90625 0.21875
vt 0.71875 0.15625
vt 0.71875 0.1875
vt 0.8125 0.15625
vt 0.875 0
vt 0.90625 0
vt 0.90625 0.03125
vt 0.875 0.03125
vt 0.9375 0.15625
vt 0.8125 0.125
vt 0.84375 0
vt 0.84375 0.03125
vt 0.9375 0.125
vt 0.8125 0.09375
vt 0.9375 0.09375
vt 0.03125 0
vt 0.0625 0
vt 0.0625 0.03125
vt 0.03125 0.03125
vt 0.09375 0
vt 0.09375 0.03125

# Normal
vn 0 0 -1

# Mesh description
g dungeon1_tiled_map_mesh_0004

# Faces
f 1/1/1 2/2/1 3/3/1 4/4/1
f 5/1/1 6/2/1 7/3/1 8/4/1
f 9/1/1 10/2/1 11/3/1 12/4/1
f 13/1/1 14/2/1 15/3/1 16/4/1
f 17/1/1 18/2/1 19/3/1 20/4/1
f 21/1/1 22/2/1 23/3/1 24/4/1
f 25/1/1 26/2/1 27/3/1 28/4/1
f 29/1/1 30/2/1 31/3/1 32/4/1
f 33/1/1 34/2/1 35/3/1 36/4/1
f 37/1/1 38/2/1 39/3/1 40/4/1
f 41/1/1 42/2/1 43/3/1 44/4/1
f 45/1/1 46/2/1 47/3/1 48/4/1
f 49/1/1 50/2/1 51/3/1 52/4/1
f 53/1/1 54/2/1 55/3/1 56/4/1
f 57/3/1 58/5/1 59/6/1 60/7/1
f 61/3/1 62/5/1 63/6/1 64/7/1
f 65/3/1 66/5/1 67/6/1 68/7/1
f 69/3/1 70/5/1 71/6/1 72/7/1
f 73/3/1 74/5/1 75/6/1 76/7/1
f 77/3/1 78/5/1 79/6/1 80/7/1
f 81/3/1 82/5/1 83/6/1 84/7/1
f 85/3/1 86/5/1 87/6/1 88/7/1
f 89/3/1 90/5/1 91/6/1 92/7/1
f 93/3/1 94/5/1 95/6/1 96/7/1
f 97/3/1 98/5/1 99/6/1 100/7/1
f 101/3/1 102/5/1 103/6/1 104/7/1
f 105/3/1 106/5/1 107/6/1 108/7/1
f 109/3/1 110/5/1 111/6/1 112/7/1
f 113/3/1 114/5/1 115/6/1 116/7/1
f 117/3/1 118/5/1 119/6/1 120/7/1
f 121/3/1 122/5/1 123/6/1 124/7/1
f 125/3/1 126/5/1 127/6/1 128/7/1
f 129/3/1 130/5/1 131/6/1 132/7/1
f 133/3/1 134/5/1 135/6/1 136/7/1
f 137/3/1 138/5/1 139/6/1 140/7/1
f 141/3/1 142/5/1 143/6/1 144/7/1
f 145/3/1 146/5/1 147/6/1 148/7/1
f 149/3/1 150/5/1 151/6/1 152/7/1
f 153/3/1 154/5/1 155/6/1 156/7/1
f 157/3/1 158/5/1 159/6/1 160/7/1
f 161/3/1 162/5/1 163/6/1 164/7/1
f 165/3/1 166/5/1 167/6/1 168/7/1
f 169/3/1 170/5/1 171/6/1 172/7/1
f 173/3/1 174/5/1 175/6/1 176/7/1
f 177/3/1 178/5/1 179/6/1 180/7/1
f 181/3/1 182/5/1 183/6/1 184/7/1
f 185/3/1 186/5/1 187/6/1 188/7/1
f 189/8/1 190/1/1 191/4/1 192/9/1
f 193/8/1 194/1/1 195/4/1 196/9/1
f 197/8/1 198/1/1 199/4/1 200/9/1
f 201/8/1 202/1/1 203/4/1 204/9/1
f 205/8/1 206/1/1 207/4/1 208/9/1
f 209/8/1 210/1/1 211/4/1 212/9/1
f 213/8/1 214/1/1 215/4/1 216/9/1
f 217/8/1 218/1/1 219/4/1 220/9/1
f 221/8/1 222/1/1 223/4/1 224/9/1
f 225/8/1 226/1/1 227/4/1 228/9/1
f 229/8/1 230/1/1 231/4/1 232/9/1
f 233/8/1 234/1/1 235/4/1 236/9/1
f 237/8/1 238/1/1 239/4/1 240/9/1
f 241/8/1 242/1/1 243/4/1 244/9/1
f 245/8/1 246/1/1 247/4/1 248/9/1
f 249/8/1 250/1/1 251/4/1 252/9/1
f 253/10/1 254/11/1 255/2/1 256/1/1
f 257/10/1 258/11/1 259/2/1 260/1/1
f 261/12/1 262/13/1 263/14/1 264/15/1
f 265/16/1 266/17/1 267/18/1 268/19/1
f 269/17/1 270/20/1 271/21/1 272/18/1
f 273/22/1 274/23/1 275/24/1 276/25/1
f 277/23/1 278/26/1 279/27/1 280/24/1
f 281/28/1 282/29/1 283/30/1 284/31/1
f 285/11/1 286/32/1 287/33/1 288/2/1
f 289/11/1 290/32/1 291/33/1 292/2/1
f 293/34/1 294/19/1 295/13/1 296/12/1
f 297/25/1 298/24/1 299/17/1 300/16/1
f 301/35/1 302/36/1 303/37/1 304/38/1
f 305/35/1 306/36/1 307/37/1 308/38/1
f 309/38/1 310/37/1 311/26/1 312/23/1
f 313/21/1 314/39/1 315/29/1 316/28/1
f 317/11/1 318/32/1 319/33/1 320/2/1
f 321/11/1 322/32/1 323/33/1 324/2/1
f 325/40/1 326/16/1 327/19/1 328/34/1
f 329/41/1 330/35/1 331/38/1 332/42/1
f 333/35/1 334/36/1 335/37/1 336/38/1
f 337/35/1 338/36/1 339/37/1 340/38/1
f 341/35/1 342/36/1 343/37/1 344/38/1
f 345/20/1 346/43/1 347/39/1 348/21/1
f 349/11/1 350/32/1 351/33/1 352/2/1
f 353/11/1 354/32/1 355/33/1 356/2/1
f 357/44/1 358/25/1 359/16/1 360/40/1
f 361/41/1 362/35/1 363/38/1 364/42/1
f 365/35/1 366/36/1 367/37/1 368/38/1
f 369/35/1 370/36/1 371/37/1 372/38/1
f 373/35/1 374/36/1 375/37/1 376/38/1
f 377/27/1 378/45/1 379/43/1 380/20/1
f 381/11/1 382/32/1 383/33/1 384/2/1
f 385/11/1 386/32/1 387/33/1 388/2/1
f 389/44/1 390/25/1 391/16/1 392/40/1
f 393/41/1 394/35/1 395/38/1 396/42/1
f 397/35/1 398/36/1 399/37/1 400/38/1
f 401/35/1 402/36/1 403/37/1 404/38/1
f 405/35/1 406/36/1 407/37/1 408/38/1
f 409/20/1 410/43/1 411/39/1 412/21/1
f 413/11/1 414/32/1 415/33/1 416/2/1
f 417/11/1 418/32/1 419/33/1 420/2/1
f 421/44/1 422/25/1 423/16/1 424/40/1
f 425/41/1 426/35/1 427/38/1 428/42/1
f 429/35/1 430/36/1 431/37/1 432/38/1
f 433/35/1 434/36/1 435/37/1 436/38/1
f 437/35/1 438/36/1 439/37/1 440/38/1
f 441/27/1 442/45/1 443/43/1 444/20/1
f 445/2/1 446/33/1 447/5/1 448/3/1
f 449/2/1 450/33/1 451/5/1 452/3/1
f 453/2/1 454/33/1 455/5/1 456/3/1
f 457/2/1 458/33/1 459/5/1 460/3/1
f 461/2/1 462/33/1 463/5/1 464/3/1
f 465/2/1 466/33/1 467/5/1 468/3/1
f 469/2/1 470/33/1 471/5/1 472/3/1
f 473/2/1 474/33/1 475/5/1 476/3/1
f 477/2/1 478/33/1 479/5/1 480/3/1
f 481/2/1 482/33/1 483/5/1 484/3/1
f 485/44/1 486/25/1 487/16/1 488/40/1
f 489/46/1 490/47/1 491/48/1 492/49/1
f 493/47/1 494/50/1 495/51/1 496/48/1
f 497/46/1 498/47/1 499/48/1 500/49/1
f 501/47/1 502/50/1 503/51/1 504/48/1
f 505/27/1 506/45/1 507/43/1 508/20/1
f 509/1/1 510/2/1 511/3/1 512/4/1
f 513/2/1 514/33/1 515/5/1 516/3/1
f 517/2/1 518/33/1 519/5/1 520/3/1
f 521/2/1 522/33/1 523/5/1 524/3/1
f 525/2/1 526/33/1 527/5/1 528/3/1
f 529/2/1 530/33/1 531/5/1 532/3/1
f 533/2/1 534/33/1 535/5/1 536/3/1
f 537/2/1 538/33/1 539/5/1 540/3/1
f 541/2/1 542/33/1 543/5/1 544/3/1
f 545/2/1 546/33/1 547/5/1 548/3/1

