# Tiled2Unity generated file. Do not modify by hand.
# Wavefront file for 'dungeon1_tiled_map_mesh_0006.obj'

# Vertices (Count = 288)
v -1 -1 0
v -2 -1 0
v -2 0 0
v -1 0 0
v -2 -1 0
v -3 -1 0
v -3 0 0
v -2 0 0
v -3 -1 0
v -4 -1 0
v -4 0 0
v -3 0 0
v -27 -1 0
v -28 -1 0
v -28 0 0
v -27 0 0
v -28 -1 0
v -29 -1 0
v -29 0 0
v -28 0 0
v -29 -1 0
v -30 -1 0
v -30 0 0
v -29 0 0
v -1 -2 0
v -2 -2 0
v -2 -1 0
v -1 -1 0
v -2 -2 0
v -3 -2 0
v -3 -1 0
v -2 -1 0
v -3 -2 0
v -4 -2 0
v -4 -1 0
v -3 -1 0
v -27 -2 0
v -28 -2 0
v -28 -1 0
v -27 -1 0
v -28 -2 0
v -29 -2 0
v -29 -1 0
v -28 -1 0
v -29 -2 0
v -30 -2 0
v -30 -1 0
v -29 -1 0
v -1 -3 0
v -2 -3 0
v -2 -2 0
v -1 -2 0
v -2 -3 0
v -3 -3 0
v -3 -2 0
v -2 -2 0
v -3 -3 0
v -4 -3 0
v -4 -2 0
v -3 -2 0
v -27 -3 0
v -28 -3 0
v -28 -2 0
v -27 -2 0
v -28 -3 0
v -29 -3 0
v -29 -2 0
v -28 -2 0
v -29 -3 0
v -30 -3 0
v -30 -2 0
v -29 -2 0
v -1 -4 0
v -2 -4 0
v -2 -3 0
v -1 -3 0
v -2 -4 0
v -3 -4 0
v -3 -3 0
v -2 -3 0
v -3 -4 0
v -4 -4 0
v -4 -3 0
v -3 -3 0
v -27 -4 0
v -28 -4 0
v -28 -3 0
v -27 -3 0
v -28 -4 0
v -29 -4 0
v -29 -3 0
v -28 -3 0
v -29 -4 0
v -30 -4 0
v -30 -3 0
v -29 -3 0
v -1 -5 0
v -2 -5 0
v -2 -4 0
v -1 -4 0
v -2 -5 0
v -3 -5 0
v -3 -4 0
v -2 -4 0
v -3 -5 0
v -4 -5 0
v -4 -4 0
v -3 -4 0
v -27 -5 0
v -28 -5 0
v -28 -4 0
v -27 -4 0
v -28 -5 0
v -29 -5 0
v -29 -4 0
v -28 -4 0
v -29 -5 0
v -30 -5 0
v -30 -4 0
v -29 -4 0
v -1 -6 0
v -2 -6 0
v -2 -5 0
v -1 -5 0
v -2 -6 0
v -3 -6 0
v -3 -5 0
v -2 -5 0
v -3 -6 0
v -4 -6 0
v -4 -5 0
v -3 -5 0
v -27 -6 0
v -28 -6 0
v -28 -5 0
v -27 -5 0
v -28 -6 0
v -29 -6 0
v -29 -5 0
v -28 -5 0
v -29 -6 0
v -30 -6 0
v -30 -5 0
v -29 -5 0
v -1 -7 0
v -2 -7 0
v -2 -6 0
v -1 -6 0
v -2 -7 0
v -3 -7 0
v -3 -6 0
v -2 -6 0
v -3 -7 0
v -4 -7 0
v -4 -6 0
v -3 -6 0
v -27 -7 0
v -28 -7 0
v -28 -6 0
v -27 -6 0
v -28 -7 0
v -29 -7 0
v -29 -6 0
v -28 -6 0
v -29 -7 0
v -30 -7 0
v -30 -6 0
v -29 -6 0
v -1 -8 0
v -2 -8 0
v -2 -7 0
v -1 -7 0
v -2 -8 0
v -3 -8 0
v -3 -7 0
v -2 -7 0
v -3 -8 0
v -4 -8 0
v -4 -7 0
v -3 -7 0
v -27 -8 0
v -28 -8 0
v -28 -7 0
v -27 -7 0
v -28 -8 0
v -29 -8 0
v -29 -7 0
v -28 -7 0
v -29 -8 0
v -30 -8 0
v -30 -7 0
v -29 -7 0
v -1 -9 0
v -2 -9 0
v -2 -8 0
v -1 -8 0
v -2 -9 0
v -3 -9 0
v -3 -8 0
v -2 -8 0
v -3 -9 0
v -4 -9 0
v -4 -8 0
v -3 -8 0
v -27 -9 0
v -28 -9 0
v -28 -8 0
v -27 -8 0
v -28 -9 0
v -29 -9 0
v -29 -8 0
v -28 -8 0
v -29 -9 0
v -30 -9 0
v -30 -8 0
v -29 -8 0
v -1 -10 0
v -2 -10 0
v -2 -9 0
v -1 -9 0
v -2 -10 0
v -3 -10 0
v -3 -9 0
v -2 -9 0
v -3 -10 0
v -4 -10 0
v -4 -9 0
v -3 -9 0
v -27 -10 0
v -28 -10 0
v -28 -9 0
v -27 -9 0
v -28 -10 0
v -29 -10 0
v -29 -9 0
v -28 -9 0
v -29 -10 0
v -30 -10 0
v -30 -9 0
v -29 -9 0
v -1 -11 0
v -2 -11 0
v -2 -10 0
v -1 -10 0
v -2 -11 0
v -3 -11 0
v -3 -10 0
v -2 -10 0
v -3 -11 0
v -4 -11 0
v -4 -10 0
v -3 -10 0
v -27 -11 0
v -28 -11 0
v -28 -10 0
v -27 -10 0
v -28 -11 0
v -29 -11 0
v -29 -10 0
v -28 -10 0
v -29 -11 0
v -30 -11 0
v -30 -10 0
v -29 -10 0
v -1 -12 0
v -2 -12 0
v -2 -11 0
v -1 -11 0
v -2 -12 0
v -3 -12 0
v -3 -11 0
v -2 -11 0
v -3 -12 0
v -4 -12 0
v -4 -11 0
v -3 -11 0
v -27 -12 0
v -28 -12 0
v -28 -11 0
v -27 -11 0
v -28 -12 0
v -29 -12 0
v -29 -11 0
v -28 -11 0
v -29 -12 0
v -30 -12 0
v -30 -11 0
v -29 -11 0

# Texture cooridinates (Count = 16)
vt 0.5 0.0625
vt 0.53125 0.0625
vt 0.53125 0.09375
vt 0.5 0.09375
vt 0.5625 0.0625
vt 0.5625 0.09375
vt 0.59375 0.0625
vt 0.59375 0.09375
vt 0.5 0.03125
vt 0.53125 0.03125
vt 0.5625 0.03125
vt 0.59375 0.03125
vt 0.5 0
vt 0.53125 0
vt 0.5625 0
vt 0.59375 0

# Normal
vn 0 0 -1

# Mesh description
g dungeon1_tiled_map_mesh_0006

# Faces
f 1/1/1 2/2/1 3/3/1 4/4/1
f 5/2/1 6/5/1 7/6/1 8/3/1
f 9/5/1 10/7/1 11/8/1 12/6/1
f 13/1/1 14/2/1 15/3/1 16/4/1
f 17/2/1 18/5/1 19/6/1 20/3/1
f 21/5/1 22/7/1 23/8/1 24/6/1
f 25/1/1 26/2/1 27/3/1 28/4/1
f 29/2/1 30/5/1 31/6/1 32/3/1
f 33/5/1 34/7/1 35/8/1 36/6/1
f 37/1/1 38/2/1 39/3/1 40/4/1
f 41/2/1 42/5/1 43/6/1 44/3/1
f 45/5/1 46/7/1 47/8/1 48/6/1
f 49/1/1 50/2/1 51/3/1 52/4/1
f 53/2/1 54/5/1 55/6/1 56/3/1
f 57/5/1 58/7/1 59/8/1 60/6/1
f 61/1/1 62/2/1 63/3/1 64/4/1
f 65/2/1 66/5/1 67/6/1 68/3/1
f 69/5/1 70/7/1 71/8/1 72/6/1
f 73/1/1 74/2/1 75/3/1 76/4/1
f 77/2/1 78/5/1 79/6/1 80/3/1
f 81/5/1 82/7/1 83/8/1 84/6/1
f 85/1/1 86/2/1 87/3/1 88/4/1
f 89/2/1 90/5/1 91/6/1 92/3/1
f 93/5/1 94/7/1 95/8/1 96/6/1
f 97/1/1 98/2/1 99/3/1 100/4/1
f 101/2/1 102/5/1 103/6/1 104/3/1
f 105/5/1 106/7/1 107/8/1 108/6/1
f 109/1/1 110/2/1 111/3/1 112/4/1
f 113/2/1 114/5/1 115/6/1 116/3/1
f 117/5/1 118/7/1 119/8/1 120/6/1
f 121/1/1 122/2/1 123/3/1 124/4/1
f 125/2/1 126/5/1 127/6/1 128/3/1
f 129/5/1 130/7/1 131/8/1 132/6/1
f 133/1/1 134/2/1 135/3/1 136/4/1
f 137/2/1 138/5/1 139/6/1 140/3/1
f 141/5/1 142/7/1 143/8/1 144/6/1
f 145/1/1 146/2/1 147/3/1 148/4/1
f 149/2/1 150/5/1 151/6/1 152/3/1
f 153/5/1 154/7/1 155/8/1 156/6/1
f 157/1/1 158/2/1 159/3/1 160/4/1
f 161/2/1 162/5/1 163/6/1 164/3/1
f 165/5/1 166/7/1 167/8/1 168/6/1
f 169/1/1 170/2/1 171/3/1 172/4/1
f 173/2/1 174/5/1 175/6/1 176/3/1
f 177/5/1 178/7/1 179/8/1 180/6/1
f 181/1/1 182/2/1 183/3/1 184/4/1
f 185/2/1 186/5/1 187/6/1 188/3/1
f 189/5/1 190/7/1 191/8/1 192/6/1
f 193/1/1 194/2/1 195/3/1 196/4/1
f 197/2/1 198/5/1 199/6/1 200/3/1
f 201/5/1 202/7/1 203/8/1 204/6/1
f 205/1/1 206/2/1 207/3/1 208/4/1
f 209/2/1 210/5/1 211/6/1 212/3/1
f 213/5/1 214/7/1 215/8/1 216/6/1
f 217/1/1 218/2/1 219/3/1 220/4/1
f 221/2/1 222/5/1 223/6/1 224/3/1
f 225/5/1 226/7/1 227/8/1 228/6/1
f 229/1/1 230/2/1 231/3/1 232/4/1
f 233/2/1 234/5/1 235/6/1 236/3/1
f 237/5/1 238/7/1 239/8/1 240/6/1
f 241/9/1 242/10/1 243/2/1 244/1/1
f 245/10/1 246/11/1 247/5/1 248/2/1
f 249/11/1 250/12/1 251/7/1 252/5/1
f 253/9/1 254/10/1 255/2/1 256/1/1
f 257/10/1 258/11/1 259/5/1 260/2/1
f 261/11/1 262/12/1 263/7/1 264/5/1
f 265/13/1 266/14/1 267/10/1 268/9/1
f 269/14/1 270/15/1 271/11/1 272/10/1
f 273/15/1 274/16/1 275/12/1 276/11/1
f 277/13/1 278/14/1 279/10/1 280/9/1
f 281/14/1 282/15/1 283/11/1 284/10/1
f 285/15/1 286/16/1 287/12/1 288/11/1

