# Tiled2Unity generated file. Do not modify by hand.
# Wavefront file for 'dungeon1_tiled_map_mesh_0007.obj'

# Vertices (Count = 32)
v -26 -30 0
v -27 -30 0
v -27 -29 0
v -26 -29 0
v -27 -30 0
v -28 -30 0
v -28 -29 0
v -27 -29 0
v -28 -30 0
v -29 -30 0
v -29 -29 0
v -28 -29 0
v -29 -30 0
v -30 -30 0
v -30 -29 0
v -29 -29 0
v -26 -31 0
v -27 -31 0
v -27 -30 0
v -26 -30 0
v -27 -31 0
v -28 -31 0
v -28 -30 0
v -27 -30 0
v -28 -31 0
v -29 -31 0
v -29 -30 0
v -28 -30 0
v -29 -31 0
v -30 -31 0
v -30 -30 0
v -29 -30 0

# Texture cooridinates (Count = 9)
vt 0.875 0.3125
vt 0.90625 0.3125
vt 0.90625 0.34375
vt 0.875 0.34375
vt 0.9375 0.3125
vt 0.9375 0.34375
vt 0.875 0.28125
vt 0.90625 0.28125
vt 0.9375 0.28125

# Normal
vn 0 0 -1

# Mesh description
g dungeon1_tiled_map_mesh_0007

# Faces
f 1/1/1 2/2/1 3/3/1 4/4/1
f 5/2/1 6/5/1 7/6/1 8/3/1
f 9/1/1 10/2/1 11/3/1 12/4/1
f 13/2/1 14/5/1 15/6/1 16/3/1
f 17/7/1 18/8/1 19/2/1 20/1/1
f 21/8/1 22/9/1 23/5/1 24/2/1
f 25/7/1 26/8/1 27/2/1 28/1/1
f 29/8/1 30/9/1 31/5/1 32/2/1

