# Tiled2Unity generated file. Do not modify by hand.
# Wavefront file for 'dungeon1_tiled_map_mesh_0012.obj'

# Vertices (Count = 180)
v -1 -14 0
v -2 -14 0
v -2 -13 0
v -1 -13 0
v -1 -28 0
v -2 -28 0
v -2 -27 0
v -1 -27 0
v -5 -28 0
v -6 -28 0
v -6 -27 0
v -5 -27 0
v -8 -28 0
v -9 -28 0
v -9 -27 0
v -8 -27 0
v -1 -29 0
v -2 -29 0
v -2 -28 0
v -1 -28 0
v -2 -29 0
v -3 -29 0
v -3 -28 0
v -2 -28 0
v -3 -29 0
v -4 -29 0
v -4 -28 0
v -3 -28 0
v -4 -29 0
v -5 -29 0
v -5 -28 0
v -4 -28 0
v -5 -29 0
v -6 -29 0
v -6 -28 0
v -5 -28 0
v -6 -29 0
v -7 -29 0
v -7 -28 0
v -6 -28 0
v -7 -29 0
v -8 -29 0
v -8 -28 0
v -7 -28 0
v -8 -29 0
v -9 -29 0
v -9 -28 0
v -8 -28 0
v -9 -29 0
v -10 -29 0
v -10 -28 0
v -9 -28 0
v -10 -29 0
v -11 -29 0
v -11 -28 0
v -10 -28 0
v -11 -29 0
v -12 -29 0
v -12 -28 0
v -11 -28 0
v -12 -29 0
v -13 -29 0
v -13 -28 0
v -12 -28 0
v -13 -29 0
v -14 -29 0
v -14 -28 0
v -13 -28 0
v -14 -29 0
v -15 -29 0
v -15 -28 0
v -14 -28 0
v -15 -29 0
v -16 -29 0
v -16 -28 0
v -15 -28 0
v -16 -29 0
v -17 -29 0
v -17 -28 0
v -16 -28 0
v -17 -29 0
v -18 -29 0
v -18 -28 0
v -17 -28 0
v -18 -29 0
v -19 -29 0
v -19 -28 0
v -18 -28 0
v -19 -29 0
v -20 -29 0
v -20 -28 0
v -19 -28 0
v -20 -29 0
v -21 -29 0
v -21 -28 0
v -20 -28 0
v -21 -29 0
v -22 -29 0
v -22 -28 0
v -21 -28 0
v -1 -30 0
v -2 -30 0
v -2 -29 0
v -1 -29 0
v -2 -30 0
v -3 -30 0
v -3 -29 0
v -2 -29 0
v -3 -30 0
v -4 -30 0
v -4 -29 0
v -3 -29 0
v -4 -30 0
v -5 -30 0
v -5 -29 0
v -4 -29 0
v -5 -30 0
v -6 -30 0
v -6 -29 0
v -5 -29 0
v -6 -30 0
v -7 -30 0
v -7 -29 0
v -6 -29 0
v -7 -30 0
v -8 -30 0
v -8 -29 0
v -7 -29 0
v -8 -30 0
v -9 -30 0
v -9 -29 0
v -8 -29 0
v -9 -30 0
v -10 -30 0
v -10 -29 0
v -9 -29 0
v -10 -30 0
v -11 -30 0
v -11 -29 0
v -10 -29 0
v -11 -30 0
v -12 -30 0
v -12 -29 0
v -11 -29 0
v -13 -30 0
v -14 -30 0
v -14 -29 0
v -13 -29 0
v -14 -30 0
v -15 -30 0
v -15 -29 0
v -14 -29 0
v -15 -30 0
v -16 -30 0
v -16 -29 0
v -15 -29 0
v -16 -30 0
v -17 -30 0
v -17 -29 0
v -16 -29 0
v -17 -30 0
v -18 -30 0
v -18 -29 0
v -17 -29 0
v -18 -30 0
v -19 -30 0
v -19 -29 0
v -18 -29 0
v -19 -30 0
v -20 -30 0
v -20 -29 0
v -19 -29 0
v -20 -30 0
v -21 -30 0
v -21 -29 0
v -20 -29 0
v -21 -30 0
v -22 -30 0
v -22 -29 0
v -21 -29 0

# Texture cooridinates (Count = 20)
vt 0.1875 0.15625
vt 0.21875 0.15625
vt 0.21875 0.1875
vt 0.1875 0.1875
vt 0.71875 0.40625
vt 0.75 0.40625
vt 0.75 0.4375
vt 0.71875 0.4375
vt 0.78125 0.375
vt 0.8125 0.375
vt 0.8125 0.40625
vt 0.78125 0.40625
vt 0.84375 0.375
vt 0.84375 0.40625
vt 0.875 0.375
vt 0.875 0.40625
vt 0.78125 0.34375
vt 0.8125 0.34375
vt 0.84375 0.34375
vt 0.875 0.34375

# Normal
vn 0 0 -1

# Mesh description
g dungeon1_tiled_map_mesh_0012

# Faces
f 1/1/1 2/2/1 3/3/1 4/4/1
f 5/5/1 6/6/1 7/7/1 8/8/1
f 9/5/1 10/6/1 11/7/1 12/8/1
f 13/5/1 14/6/1 15/7/1 16/8/1
f 17/9/1 18/10/1 19/11/1 20/12/1
f 21/10/1 22/13/1 23/14/1 24/11/1
f 25/13/1 26/15/1 27/16/1 28/14/1
f 29/10/1 30/13/1 31/14/1 32/11/1
f 33/5/1 34/6/1 35/7/1 36/8/1
f 37/9/1 38/10/1 39/11/1 40/12/1
f 41/10/1 42/13/1 43/14/1 44/11/1
f 45/13/1 46/15/1 47/16/1 48/14/1
f 49/9/1 50/10/1 51/11/1 52/12/1
f 53/10/1 54/13/1 55/14/1 56/11/1
f 57/13/1 58/15/1 59/16/1 60/14/1
f 61/5/1 62/6/1 63/7/1 64/8/1
f 65/9/1 66/10/1 67/11/1 68/12/1
f 69/10/1 70/13/1 71/14/1 72/11/1
f 73/13/1 74/15/1 75/16/1 76/14/1
f 77/9/1 78/10/1 79/11/1 80/12/1
f 81/10/1 82/13/1 83/14/1 84/11/1
f 85/5/1 86/6/1 87/7/1 88/8/1
f 89/9/1 90/10/1 91/11/1 92/12/1
f 93/10/1 94/13/1 95/14/1 96/11/1
f 97/13/1 98/15/1 99/16/1 100/14/1
f 101/17/1 102/18/1 103/10/1 104/9/1
f 105/18/1 106/19/1 107/13/1 108/10/1
f 109/19/1 110/20/1 111/15/1 112/13/1
f 113/18/1 114/19/1 115/13/1 116/10/1
f 117/19/1 118/20/1 119/15/1 120/13/1
f 121/17/1 122/18/1 123/10/1 124/9/1
f 125/18/1 126/19/1 127/13/1 128/10/1
f 129/19/1 130/20/1 131/15/1 132/13/1
f 133/17/1 134/18/1 135/10/1 136/9/1
f 137/18/1 138/19/1 139/13/1 140/10/1
f 141/19/1 142/20/1 143/15/1 144/13/1
f 145/17/1 146/18/1 147/10/1 148/9/1
f 149/18/1 150/19/1 151/13/1 152/10/1
f 153/19/1 154/20/1 155/15/1 156/13/1
f 157/17/1 158/18/1 159/10/1 160/9/1
f 161/18/1 162/19/1 163/13/1 164/10/1
f 165/19/1 166/20/1 167/15/1 168/13/1
f 169/17/1 170/18/1 171/10/1 172/9/1
f 173/18/1 174/19/1 175/13/1 176/10/1
f 177/19/1 178/20/1 179/15/1 180/13/1

