# Tiled2Unity generated file. Do not modify by hand.
# Wavefront file for 'dungeon1_tiled_map_mesh_0010.obj'

# Vertices (Count = 192)
v -4 -26 0
v -5 -26 0
v -5 -25 0
v -4 -25 0
v -7 -26 0
v -8 -26 0
v -8 -25 0
v -7 -25 0
v -10 -26 0
v -11 -26 0
v -11 -25 0
v -10 -25 0
v -13 -26 0
v -14 -26 0
v -14 -25 0
v -13 -25 0
v -16 -26 0
v -17 -26 0
v -17 -25 0
v -16 -25 0
v -20 -26 0
v -21 -26 0
v -21 -25 0
v -20 -25 0
v -2 -28 0
v -3 -28 0
v -3 -27 0
v -2 -27 0
v -3 -28 0
v -4 -28 0
v -4 -27 0
v -3 -27 0
v -4 -28 0
v -5 -28 0
v -5 -27 0
v -4 -27 0
v -5 -28 0
v -6 -28 0
v -6 -27 0
v -5 -27 0
v -6 -28 0
v -7 -28 0
v -7 -27 0
v -6 -27 0
v -7 -28 0
v -8 -28 0
v -8 -27 0
v -7 -27 0
v -8 -28 0
v -9 -28 0
v -9 -27 0
v -8 -27 0
v -9 -28 0
v -10 -28 0
v -10 -27 0
v -9 -27 0
v -10 -28 0
v -11 -28 0
v -11 -27 0
v -10 -27 0
v -11 -28 0
v -12 -28 0
v -12 -27 0
v -11 -27 0
v -12 -28 0
v -13 -28 0
v -13 -27 0
v -12 -27 0
v -13 -28 0
v -14 -28 0
v -14 -27 0
v -13 -27 0
v -14 -28 0
v -15 -28 0
v -15 -27 0
v -14 -27 0
v -15 -28 0
v -16 -28 0
v -16 -27 0
v -15 -27 0
v -16 -28 0
v -17 -28 0
v -17 -27 0
v -16 -27 0
v -17 -28 0
v -18 -28 0
v -18 -27 0
v -17 -27 0
v -18 -28 0
v -19 -28 0
v -19 -27 0
v -18 -27 0
v -19 -28 0
v -20 -28 0
v -20 -27 0
v -19 -27 0
v -20 -28 0
v -21 -28 0
v -21 -27 0
v -20 -27 0
v -21 -28 0
v -22 -28 0
v -22 -27 0
v -21 -27 0
v -22 -28 0
v -23 -28 0
v -23 -27 0
v -22 -27 0
v -2 -29 0
v -3 -29 0
v -3 -28 0
v -2 -28 0
v -3 -29 0
v -4 -29 0
v -4 -28 0
v -3 -28 0
v -4 -29 0
v -5 -29 0
v -5 -28 0
v -4 -28 0
v -5 -29 0
v -6 -29 0
v -6 -28 0
v -5 -28 0
v -6 -29 0
v -7 -29 0
v -7 -28 0
v -6 -28 0
v -7 -29 0
v -8 -29 0
v -8 -28 0
v -7 -28 0
v -8 -29 0
v -9 -29 0
v -9 -28 0
v -8 -28 0
v -9 -29 0
v -10 -29 0
v -10 -28 0
v -9 -28 0
v -10 -29 0
v -11 -29 0
v -11 -28 0
v -10 -28 0
v -11 -29 0
v -12 -29 0
v -12 -28 0
v -11 -28 0
v -12 -29 0
v -13 -29 0
v -13 -28 0
v -12 -28 0
v -13 -29 0
v -14 -29 0
v -14 -28 0
v -13 -28 0
v -14 -29 0
v -15 -29 0
v -15 -28 0
v -14 -28 0
v -15 -29 0
v -16 -29 0
v -16 -28 0
v -15 -28 0
v -16 -29 0
v -17 -29 0
v -17 -28 0
v -16 -28 0
v -17 -29 0
v -18 -29 0
v -18 -28 0
v -17 -28 0
v -18 -29 0
v -19 -29 0
v -19 -28 0
v -18 -28 0
v -19 -29 0
v -20 -29 0
v -20 -28 0
v -19 -28 0
v -20 -29 0
v -21 -29 0
v -21 -28 0
v -20 -28 0
v -21 -29 0
v -22 -29 0
v -22 -28 0
v -21 -28 0
v -22 -29 0
v -23 -29 0
v -23 -28 0
v -22 -28 0

# Texture cooridinates (Count = 16)
vt 0.71875 0.40625
vt 0.75 0.40625
vt 0.75 0.4375
vt 0.71875 0.4375
vt 0.78125 0.375
vt 0.8125 0.375
vt 0.8125 0.40625
vt 0.78125 0.40625
vt 0.84375 0.375
vt 0.84375 0.40625
vt 0.875 0.375
vt 0.875 0.40625
vt 0.78125 0.34375
vt 0.8125 0.34375
vt 0.84375 0.34375
vt 0.875 0.34375

# Normal
vn 0 0 -1

# Mesh description
g dungeon1_tiled_map_mesh_0010

# Faces
f 1/1/1 2/2/1 3/3/1 4/4/1
f 5/1/1 6/2/1 7/3/1 8/4/1
f 9/1/1 10/2/1 11/3/1 12/4/1
f 13/1/1 14/2/1 15/3/1 16/4/1
f 17/1/1 18/2/1 19/3/1 20/4/1
f 21/1/1 22/2/1 23/3/1 24/4/1
f 25/5/1 26/6/1 27/7/1 28/8/1
f 29/6/1 30/9/1 31/10/1 32/7/1
f 33/9/1 34/11/1 35/12/1 36/10/1
f 37/5/1 38/6/1 39/7/1 40/8/1
f 41/6/1 42/9/1 43/10/1 44/7/1
f 45/9/1 46/11/1 47/12/1 48/10/1
f 49/5/1 50/6/1 51/7/1 52/8/1
f 53/6/1 54/9/1 55/10/1 56/7/1
f 57/9/1 58/11/1 59/12/1 60/10/1
f 61/5/1 62/6/1 63/7/1 64/8/1
f 65/6/1 66/9/1 67/10/1 68/7/1
f 69/9/1 70/11/1 71/12/1 72/10/1
f 73/5/1 74/6/1 75/7/1 76/8/1
f 77/6/1 78/9/1 79/10/1 80/7/1
f 81/9/1 82/11/1 83/12/1 84/10/1
f 85/5/1 86/6/1 87/7/1 88/8/1
f 89/6/1 90/9/1 91/10/1 92/7/1
f 93/9/1 94/11/1 95/12/1 96/10/1
f 97/5/1 98/6/1 99/7/1 100/8/1
f 101/6/1 102/9/1 103/10/1 104/7/1
f 105/9/1 106/11/1 107/12/1 108/10/1
f 109/13/1 110/14/1 111/6/1 112/5/1
f 113/14/1 114/15/1 115/9/1 116/6/1
f 117/15/1 118/16/1 119/11/1 120/9/1
f 121/13/1 122/14/1 123/6/1 124/5/1
f 125/14/1 126/15/1 127/9/1 128/6/1
f 129/15/1 130/16/1 131/11/1 132/9/1
f 133/13/1 134/14/1 135/6/1 136/5/1
f 137/14/1 138/15/1 139/9/1 140/6/1
f 141/15/1 142/16/1 143/11/1 144/9/1
f 145/13/1 146/14/1 147/6/1 148/5/1
f 149/14/1 150/15/1 151/9/1 152/6/1
f 153/15/1 154/16/1 155/11/1 156/9/1
f 157/13/1 158/14/1 159/6/1 160/5/1
f 161/14/1 162/15/1 163/9/1 164/6/1
f 165/15/1 166/16/1 167/11/1 168/9/1
f 169/13/1 170/14/1 171/6/1 172/5/1
f 173/14/1 174/15/1 175/9/1 176/6/1
f 177/15/1 178/16/1 179/11/1 180/9/1
f 181/13/1 182/14/1 183/6/1 184/5/1
f 185/14/1 186/15/1 187/9/1 188/6/1
f 189/15/1 190/16/1 191/11/1 192/9/1

